# xmcd CD database file
#
# Track frame offsets:
#	182
#	17132
#	30882
#	46057
#	76457
#	94632
#	111757
#	132857
#	150182
#	171932
#	189507
#	209007
#
# Disc length: 3034 seconds
#
# Revision: 0
# Processed by: cddbd v1.4PL0 Copyright (c) Steve Scherf et al.
# Submitted via: CDex 1.40Release
#
DISCID=8b0bd80c
DTITLE=Andy J Forest Band - Cat On A Hot Tin Harp
DYEAR=1995
DGENRE=Blues
TTITLE0=30-60-90
TTITLE1=I don't care
TTITLE2=Use me
TTITLE3=My baby's crazy
TTITLE4=Miranda
TTITLE5=Compulsive liar
TTITLE6=Where's my money
TTITLE7=Josephine
TTITLE8=The Devil made me do it
TTITLE9=Cat on a hot tin harp
TTITLE10=Honey I'm home
TTITLE11=Coffee blues
EXTD=YEAR: 1995 ID3G: 0
EXTT0=
EXTT1=
EXTT2=
EXTT3=
EXTT4=
EXTT5=
EXTT6=
EXTT7=
EXTT8=
EXTT9=
EXTT10=
EXTT11=
PLAYORDER=
